<svg xmlns="http://www.w3.org/2000/svg" viewBox="0 0 64 64" fill="none">
  <rect width="64" height="64" rx="18" fill="#00346f"/>
  <path d="M18 46V18h9.5c5.8 0 9.9 1.1 12.5 3.2 2.6 2.1 3.9 5.3 3.9 9.4 0 4.6-1.5 8.2-4.5 10.8-3 2.4-7.3 3.6-13 3.6H18Z" fill="#f8f9fa"/>
  <path d="M27 25h-2.7v14H27c4.9 0 8.3-2.6 8.3-7.3 0-4.4-3-6.7-8.3-6.7Z" fill="#00346f"/>
  <path d="M42 16c-4.3 2.1-6.7 5.3-6.7 9.2 0 4.6 2.8 7.6 7.5 10 2.7 1.4 4.2 2.8 4.2 4.7 0 1.5-.9 3-2.5 4.6" stroke="#ffdbcc" stroke-linecap="round" stroke-width="3.5"/>
</svg>
